<svg xmlns="http://www.w3.org/2000/svg" xmlns:xlink="http://www.w3.org/1999/xlink" width="500" zoomAndPan="magnify" viewBox="0 0 375 374.999991" height="500" preserveAspectRatio="xMidYMid meet" version="1.0"><defs><g/></defs><g fill="#ffffff" fill-opacity="1"><g transform="translate(37.500002, 215.624986)"><g><path d="M 54.800781 -77.523438 C 51.613281 -76.597656 48.425781 -72.691406 46.164062 -70.429688 C 44.726562 -69.09375 43.285156 -67.652344 41.949219 -66.113281 C 41.023438 -65.082031 38.660156 -63.027344 38.453125 -61.585938 C 38.554688 -61.484375 38.554688 -61.484375 38.660156 -61.484375 L 37.21875 -59.632812 C 37.117188 -59.53125 38.25 -61.175781 38.25 -61.175781 C 37.734375 -61.074219 36.808594 -59.121094 36.808594 -59.121094 C 33.929688 -55.417969 30.742188 -52.027344 28.070312 -48.117188 C 25.085938 -43.699219 22.621094 -39.171875 20.253906 -34.445312 C 21.589844 -39.378906 23.339844 -44.210938 25.292969 -48.941406 C 25.808594 -50.175781 31.460938 -63.542969 31.667969 -63.4375 C 31.359375 -63.542969 26.320312 -52.230469 26.011719 -51.613281 C 28.378906 -57.371094 30.949219 -63.027344 33.929688 -68.476562 C 33.722656 -68.066406 33.519531 -67.550781 33.621094 -67.550781 C 34.03125 -67.449219 36.089844 -71.457031 35.78125 -71.5625 L 35.472656 -71.355469 C 36.089844 -72.488281 36.398438 -73.101562 35.78125 -74.75 C 35.164062 -76.394531 33.621094 -79.273438 31.460938 -78.347656 C 30.125 -77.832031 28.996094 -75.363281 28.480469 -74.335938 C 28.171875 -73.824219 28.070312 -73 27.761719 -72.589844 C 27.347656 -71.972656 26.628906 -71.664062 26.011719 -70.839844 C 24.675781 -68.785156 23.75 -66.316406 22.824219 -64.054688 C 22.3125 -62.820312 16.65625 -50.585938 16.863281 -50.484375 C 17.066406 -50.585938 17.171875 -50.792969 17.273438 -50.996094 C 16.964844 -50.070312 16.554688 -49.148438 16.140625 -48.222656 C 16.039062 -48.324219 16.449219 -49.042969 16.347656 -49.042969 C 15.320312 -49.25 12.234375 -40.714844 12.03125 -39.894531 C 11.617188 -37.941406 11.105469 -36.191406 10.28125 -34.238281 C 9.769531 -33.003906 9.253906 -31.769531 8.84375 -30.535156 C 8.84375 -30.433594 8.328125 -27.863281 8.738281 -28.789062 C 8.738281 -28.480469 8.636719 -28.273438 8.535156 -27.964844 C 8.535156 -28.070312 8.535156 -28.273438 8.429688 -28.378906 C 8.226562 -28.273438 7.710938 -25.5 7.609375 -25.394531 C 7.195312 -24.367188 6.582031 -23.441406 6.167969 -22.414062 C 4.832031 -19.535156 4.011719 -16.347656 3.289062 -13.261719 L 1.132812 -2.777344 C 0.71875 -0.824219 -0.925781 3.597656 0.617188 5.550781 C 0.617188 5.347656 0.617188 5.242188 0.71875 5.140625 C 0.71875 5.242188 0.71875 5.449219 0.824219 5.65625 C 1.746094 9.046875 7.300781 8.019531 9.152344 6.066406 C 9.152344 6.273438 9.253906 6.375 9.355469 6.476562 C 10.074219 0.71875 12.132812 -5.140625 14.1875 -10.589844 C 15.011719 -12.953125 15.832031 -16.863281 17.480469 -18.710938 C 17.582031 -19.742188 18.097656 -20.050781 18.917969 -19.535156 C 19.535156 -19.433594 20.253906 -19.328125 20.871094 -19.328125 C 21.488281 -19.226562 22.3125 -19.226562 23.03125 -19.328125 C 27.347656 -20.050781 31.976562 -22.929688 35.675781 -25.191406 C 37.117188 -26.011719 38.144531 -27.246094 39.480469 -27.964844 C 40.921875 -28.789062 42.359375 -29.199219 43.800781 -30.332031 C 47.707031 -33.3125 50.894531 -36.707031 53.980469 -40.511719 C 57.0625 -44.210938 59.738281 -48.015625 61.585938 -52.539062 C 62.617188 -54.800781 63.4375 -57.269531 64.15625 -59.738281 C 64.363281 -60.664062 65.082031 -62 64.878906 -62.925781 C 64.878906 -62.925781 64.570312 -62.203125 64.363281 -61.691406 C 64.671875 -63.4375 64.878906 -65.082031 64.773438 -66.933594 C 64.878906 -66.523438 65.082031 -65.90625 64.980469 -65.804688 C 65.1875 -65.90625 65.082031 -67.242188 65.082031 -67.859375 C 65.082031 -67.652344 64.980469 -68.578125 65.082031 -68.269531 C 64.671875 -73.207031 60.148438 -79.066406 54.800781 -77.523438 Z M 54.699219 -64.980469 C 54.597656 -64.570312 54.597656 -64.671875 54.699219 -64.878906 C 54.183594 -57.785156 50.175781 -50.792969 46.164062 -45.136719 C 44.109375 -42.15625 41.742188 -39.378906 39.277344 -36.707031 C 38.144531 -35.574219 36.910156 -34.445312 35.675781 -33.414062 C 34.753906 -32.492188 32.796875 -31.460938 31.875 -30.332031 C 32.695312 -31.152344 34.546875 -32.183594 35.371094 -32.796875 C 37.015625 -34.238281 38.660156 -35.882812 40.203125 -37.425781 C 42.667969 -40.097656 45.035156 -42.875 47.089844 -45.855469 C 40.820312 -36.5 32.183594 -28.378906 21.796875 -24.058594 C 22.621094 -24.574219 24.675781 -25.601562 24.675781 -25.703125 C 24.46875 -25.910156 20.359375 -24.058594 19.945312 -23.855469 C 21.285156 -26.527344 22.621094 -29.199219 24.058594 -31.875 C 24.46875 -32.492188 27.761719 -38.761719 27.761719 -38.761719 C 27.554688 -38.761719 27.347656 -38.660156 27.246094 -38.351562 C 31.769531 -45.652344 37.734375 -52.949219 43.285156 -59.632812 C 45.035156 -61.691406 55.214844 -74.953125 54.699219 -65.082031 Z M 4.113281 -11.824219 C 5.140625 -16.246094 7.300781 -19.226562 8.636719 -23.238281 C 6.785156 -17.273438 4.523438 -11.207031 2.777344 -5.347656 C 3.1875 -7.402344 3.597656 -9.972656 4.113281 -11.824219 Z M 2.054688 1.335938 C 1.953125 1.746094 1.234375 2.261719 1.132812 2.777344 C 1.4375 1.027344 1.746094 -0.515625 2.160156 -2.160156 C 1.953125 -1.027344 2.261719 0.207031 2.054688 1.335938 Z M 24.675781 -48.222656 L 22.515625 -42.875 L 24.574219 -48.117188 Z M 24.777344 -48.632812 C 24.777344 -48.425781 24.675781 -48.425781 24.675781 -48.324219 C 24.675781 -48.425781 24.675781 -48.425781 24.777344 -48.632812 Z M 24.984375 -49.042969 L 24.882812 -48.941406 L 24.984375 -49.148438 Z M 26.320312 -36.910156 C 26.320312 -37.015625 26.425781 -37.015625 26.425781 -37.117188 C 26.425781 -37.015625 26.320312 -36.910156 26.320312 -36.910156 Z M 26.320312 -36.910156 "/></g></g></g><g fill="#ffffff" fill-opacity="1"><g transform="translate(89.418307, 215.624986)"><g><path d="M 52.335938 -24.777344 C 52.230469 -27.039062 50.378906 -25.085938 49.761719 -24.265625 C 48.425781 -22.3125 47.191406 -20.253906 45.960938 -18.300781 C 43.183594 -14.085938 40.40625 -9.871094 37.21875 -5.859375 C 26.628906 7.195312 34.03125 -16.039062 33.210938 -15.832031 C 32.796875 -15.730469 32.492188 -14.1875 32.386719 -13.878906 C 33.210938 -17.582031 34.753906 -22.003906 36.707031 -25.601562 C 37.835938 -27.863281 39.171875 -29.714844 37.117188 -32.183594 C 33.3125 -36.808594 28.890625 -32.59375 26.425781 -29.40625 C 25.394531 -33.3125 23.339844 -39.070312 18.300781 -39.070312 C 16.039062 -39.070312 14.703125 -37.941406 13.160156 -36.601562 C 12.234375 -35.984375 11.515625 -35.882812 10.691406 -35.164062 C 9.355469 -34.238281 8.429688 -32.796875 7.503906 -31.566406 C 4.011719 -26.425781 1.542969 -19.945312 0.410156 -13.984375 C -0.101562 -11.105469 -0.308594 -7.917969 0.515625 -5.039062 C 1.027344 -3.394531 2.878906 0.308594 5.242188 0 C 5.347656 0 5.140625 -0.101562 4.832031 -0.308594 C 6.273438 0.101562 7.917969 -0.101562 9.152344 -0.925781 C 9.253906 -0.71875 8.019531 -0.207031 8.019531 -0.207031 C 9.152344 1.542969 17.582031 -8.636719 18.199219 -9.5625 C 19.535156 -11.414062 20.460938 -13.367188 21.695312 -15.320312 C 22.621094 -16.757812 24.058594 -18.609375 25.085938 -20.152344 C 24.984375 -19.433594 24.984375 -18.507812 24.984375 -18.507812 C 23.132812 -12.648438 21.386719 -6.273438 23.855469 -0.207031 C 24.984375 2.878906 27.761719 5.757812 31.257812 5.140625 C 34.339844 4.625 36.910156 1.644531 38.761719 -0.71875 C 41.023438 -3.394531 42.976562 -6.375 44.929688 -9.460938 C 46.578125 -12.234375 48.117188 -15.011719 49.457031 -18.097656 C 50.277344 -20.050781 52.539062 -22.414062 52.335938 -24.777344 Z M 22.824219 -24.058594 C 22.3125 -23.339844 21.796875 -22.621094 21.386719 -21.898438 L 18.710938 -18.097656 C 16.964844 -15.527344 15.113281 -13.058594 13.160156 -10.691406 C 12.648438 -9.972656 10.179688 -6.785156 9.152344 -7.09375 C 7.609375 -7.609375 9.253906 -12.953125 9.460938 -13.777344 C 9.769531 -15.21875 15.21875 -31.050781 16.65625 -31.359375 C 14.804688 -31.460938 8.84375 -12.851562 8.535156 -11.308594 C 9.355469 -16.347656 11.207031 -21.285156 13.261719 -25.910156 C 14.394531 -28.273438 16.964844 -34.546875 20.359375 -34.546875 C 22.207031 -34.546875 22.621094 -30.742188 22.929688 -29.507812 C 22.824219 -29.714844 21.898438 -32.695312 21.796875 -32.59375 C 21.285156 -32.183594 23.339844 -26.527344 23.339844 -25.703125 C 23.339844 -24.882812 23.339844 -24.882812 22.824219 -24.058594 Z M 25.191406 -19.019531 C 25.191406 -19.019531 25.5 -20.460938 25.601562 -20.769531 L 26.117188 -21.488281 Z M 23.648438 -25.394531 L 23.648438 -26.425781 C 23.957031 -26.011719 23.957031 -25.703125 23.648438 -25.394531 Z M 23.648438 -25.394531 "/></g></g></g><g fill="#ffffff" fill-opacity="1"><g transform="translate(134.24282, 215.624986)"><g><path d="M 42.15625 -24.984375 C 41.539062 -27.65625 39.070312 -24.058594 38.554688 -23.441406 L 32.902344 -15.832031 L 27.347656 -8.535156 L 24.367188 -4.730469 C 24.058594 -4.316406 21.796875 -1.4375 22.003906 -1.4375 C 22.207031 -1.644531 22.515625 -1.644531 22.824219 -1.953125 C 21.285156 -0.308594 15.628906 4.832031 14.601562 3.597656 C 13.777344 2.570312 16.039062 -1.746094 16.347656 -2.777344 C 17.480469 -5.757812 18.507812 -8.84375 19.742188 -11.722656 C 21.078125 -14.703125 22.621094 -17.683594 23.855469 -20.667969 C 25.085938 -23.855469 23.238281 -24.984375 20.253906 -25.703125 C 18.917969 -26.011719 17.273438 -26.011719 15.730469 -26.21875 C 15.730469 -26.117188 15.832031 -26.117188 15.832031 -26.117188 C 17.171875 -25.910156 19.125 -25.808594 20.769531 -25.292969 C 18.300781 -26.011719 15.21875 -25.703125 13.261719 -26.21875 C 11.925781 -26.527344 11.105469 -26.527344 11.308594 -28.070312 C 11.515625 -30.125 13.675781 -32.285156 14.394531 -34.238281 C 14.394531 -34.136719 13.675781 -32.285156 13.777344 -32.285156 C 14.292969 -32.078125 15.113281 -34.957031 15.113281 -35.371094 C 15.011719 -35.882812 13.777344 -37.425781 13.675781 -36.808594 L 13.878906 -36.5 C 8.945312 -39.894531 3.085938 -32.902344 4.113281 -27.863281 C 4.316406 -27.144531 4.730469 -26.734375 5.039062 -25.910156 C 5.242188 -25.292969 5.039062 -24.574219 5.65625 -23.75 C 7.8125 -21.078125 11.722656 -20.976562 14.804688 -21.589844 C 14.292969 -20.871094 8.84375 -9.355469 9.152344 -9.253906 L 8.429688 -6.683594 C 8.328125 -6.785156 8.738281 -7.609375 8.535156 -7.609375 C 7.8125 -7.710938 6.375 -1.746094 6.273438 -1.234375 C 5.859375 1.234375 5.964844 3.394531 6.992188 5.65625 C 7.609375 7.09375 8.328125 8.328125 9.664062 9.152344 C 10.898438 9.972656 12.441406 10.382812 13.878906 10.074219 C 14.394531 9.871094 16.347656 8.535156 15.832031 8.636719 L 16.554688 8.328125 C 16.449219 8.429688 16.347656 8.535156 16.347656 8.636719 C 16.65625 8.738281 21.386719 4.933594 22.003906 4.523438 C 25.292969 1.746094 27.964844 -1.644531 30.433594 -5.039062 C 32.902344 -8.535156 35.472656 -12.03125 37.835938 -15.527344 C 38.96875 -17.171875 39.996094 -18.816406 40.820312 -20.5625 C 41.433594 -21.796875 42.464844 -23.546875 42.15625 -24.984375 Z M 11.414062 -12.648438 C 12.132812 -14.496094 12.953125 -16.246094 13.878906 -17.992188 C 14.085938 -18.300781 15.527344 -22.003906 16.246094 -22.207031 C 15.730469 -21.898438 13.570312 -16.863281 13.058594 -15.9375 L 11.105469 -11.414062 C 10.074219 -8.945312 8.945312 -6.375 8.226562 -3.703125 C 8.945312 -6.785156 10.179688 -9.769531 11.414062 -12.648438 Z M 8.945312 7.09375 C 9.5625 7.917969 10.382812 8.738281 11.515625 9.152344 C 10.589844 8.84375 9.769531 8.328125 9.152344 7.710938 C 9.253906 7.710938 9.253906 7.8125 9.253906 7.917969 C 8.636719 7.09375 7.8125 5.347656 7.710938 5.039062 C 7.402344 3.804688 7.300781 2.363281 7.402344 1.132812 C 7.402344 0.101562 7.503906 -0.71875 7.710938 -1.644531 L 7.710938 -1.542969 C 7.503906 -0.207031 7.402344 1.132812 7.503906 2.570312 L 7.503906 3.085938 C 7.402344 2.980469 7.402344 2.878906 7.402344 2.878906 C 7.402344 2.878906 7.402344 2.980469 7.503906 3.1875 L 7.503906 3.289062 L 7.917969 5.449219 L 7.609375 4.113281 C 7.8125 4.730469 8.328125 5.859375 8.84375 6.992188 L 8.738281 6.890625 C 8.738281 6.992188 8.84375 7.09375 8.945312 7.195312 Z M 11.824219 -26.835938 C 12.339844 -26.425781 13.261719 -26.320312 14.1875 -26.21875 C 13.367188 -26.320312 12.648438 -26.527344 12.132812 -26.9375 C 12.132812 -26.9375 11.515625 -27.453125 11.414062 -27.65625 C 11.414062 -27.453125 11.617188 -26.9375 11.824219 -26.835938 Z M 22.621094 -18.816406 L 20.460938 -14.292969 L 22.621094 -18.917969 Z M 7.8125 -1.953125 C 7.8125 -1.851562 7.710938 -1.746094 7.710938 -1.644531 L 7.710938 -1.746094 C 7.710938 -1.851562 7.8125 -1.851562 7.8125 -1.953125 Z M 22.722656 -19.125 L 22.722656 -19.019531 L 22.621094 -19.019531 Z M 22.722656 -19.125 L 22.722656 -19.019531 L 22.621094 -19.019531 Z M 7.917969 -3.289062 C 7.917969 -3.394531 8.019531 -3.496094 8.019531 -3.703125 C 8.019531 -3.496094 7.917969 -3.394531 7.917969 -3.289062 Z M 8.328125 6.167969 C 8.328125 6.167969 8.429688 6.273438 8.429688 6.375 C 8.429688 6.273438 8.328125 6.273438 8.328125 6.167969 Z M 11.515625 -27.863281 C 11.414062 -27.863281 11.414062 -27.761719 11.414062 -27.761719 Z M 11.515625 -27.863281 "/></g></g></g><g fill="#ffffff" fill-opacity="1"><g transform="translate(168.889291, 215.624986)"><g><path d="M 54.390625 -24.882812 C 54.289062 -26.734375 52.949219 -26.21875 52.027344 -25.394531 C 51.511719 -24.882812 44.828125 -17.480469 45.136719 -16.964844 C 45.34375 -16.964844 45.652344 -16.964844 45.855469 -17.171875 C 43.902344 -15.21875 40.820312 -13.367188 38.453125 -11.617188 C 36.089844 -9.769531 33.414062 -6.375 30.125 -6.167969 C 29.816406 -6.167969 29.507812 -6.066406 29.097656 -6.167969 C 27.65625 -6.375 24.164062 -12.648438 23.855469 -13.984375 C 23.957031 -12.953125 26.320312 -8.328125 26.9375 -7.300781 C 24.574219 -9.972656 23.339844 -13.984375 22.722656 -17.582031 C 22.824219 -17.273438 23.03125 -16.964844 23.132812 -16.964844 C 23.441406 -17.066406 23.03125 -19.125 23.03125 -19.226562 C 23.238281 -19.433594 24.777344 -19.84375 25.191406 -20.050781 C 27.453125 -20.976562 29.613281 -22.105469 31.769531 -23.339844 C 35.78125 -25.5 39.789062 -28.070312 43.082031 -31.257812 C 46.679688 -34.855469 49.761719 -39.894531 45.035156 -44.007812 C 40.304688 -48.015625 33.621094 -42.667969 30.023438 -39.480469 C 26.527344 -36.398438 23.546875 -32.796875 20.769531 -29.097656 C 19.535156 -27.246094 18.199219 -25.5 17.066406 -23.648438 C 16.347656 -22.621094 14.085938 -20.050781 14.292969 -18.816406 C 14.292969 -18.816406 16.246094 -21.179688 16.347656 -21.285156 C 15.628906 -20.253906 14.910156 -19.125 14.292969 -17.992188 C 14.292969 -18.097656 12.648438 -15.832031 12.441406 -15.421875 L 9.664062 -10.589844 C 10.796875 -15.421875 12.132812 -20.253906 13.570312 -25.085938 C 14.292969 -27.554688 14.910156 -28.996094 16.554688 -30.949219 C 17.992188 -32.695312 19.433594 -34.445312 20.769531 -36.191406 C 23.855469 -40.097656 26.628906 -44.3125 29.40625 -48.53125 C 31.460938 -51.613281 33.003906 -55.625 35.371094 -58.195312 C 38.25 -61.585938 40.714844 -66.113281 42.15625 -70.429688 C 42.976562 -72.792969 42.667969 -74.75 41.539062 -77.113281 C 39.378906 -81.328125 35.0625 -85.132812 30.332031 -82.972656 C 26.425781 -81.226562 23.648438 -77.214844 21.589844 -73.617188 C 20.253906 -71.355469 19.019531 -68.992188 17.992188 -66.523438 L 15.9375 -62.203125 C 15.628906 -61.382812 15.320312 -60.046875 15.011719 -59.324219 C 15.011719 -59.222656 14.910156 -59.121094 14.910156 -59.121094 C 14.085938 -57.0625 13.46875 -55.109375 12.75 -53.054688 C 12.648438 -53.15625 13.261719 -55.109375 13.261719 -55.109375 C 12.75 -55.109375 11.105469 -50.175781 10.898438 -49.558594 C 9.972656 -47.089844 9.152344 -44.621094 8.328125 -42.050781 C 6.785156 -37.425781 5.550781 -32.695312 4.625 -27.863281 C 3.804688 -22.621094 2.261719 -17.480469 1.132812 -12.339844 C 0.71875 -10.074219 0 -7.8125 0 -5.550781 C 0 -4.316406 0.207031 -2.980469 0.925781 -1.953125 C 1.132812 -1.746094 2.878906 -0.308594 2.878906 -0.410156 C 2.878906 -0.410156 2.777344 -0.515625 2.777344 -0.617188 C 3.289062 -0.207031 4.316406 0.101562 5.140625 0.207031 C 4.421875 0.207031 3.496094 0.101562 3.289062 -0.207031 C 4.011719 0.824219 6.785156 0.101562 6.992188 0.101562 C 9.355469 -0.410156 9.871094 -3.703125 11.105469 -5.550781 L 16.039062 -13.777344 C 16.449219 -11.617188 17.273438 -9.152344 18.300781 -7.300781 C 18.507812 -6.785156 21.488281 -2.671875 21.695312 -2.878906 C 21.695312 -2.980469 21.589844 -3.1875 21.589844 -3.289062 C 22.003906 -2.777344 22.414062 -2.363281 22.929688 -2.054688 C 22.824219 -1.953125 22.515625 -2.363281 22.414062 -2.160156 C 21.796875 -1.234375 26.21875 0.308594 26.9375 0.308594 C 28.378906 0.207031 29.613281 -0.824219 30.949219 -1.335938 C 32.078125 -1.851562 33.210938 -2.261719 34.238281 -3.085938 C 35.472656 -4.113281 34.136719 -3.496094 34.957031 -4.113281 L 34.957031 -3.90625 C 35.265625 -4.316406 39.894531 -6.890625 40.097656 -7.09375 C 42.464844 -8.84375 44.3125 -11.207031 46.371094 -13.367188 C 48.117188 -15.113281 49.558594 -17.066406 50.996094 -18.917969 C 52.539062 -20.667969 54.597656 -22.105469 54.390625 -24.777344 Z M 32.078125 -75.058594 C 33.105469 -76.496094 36.089844 -80.09375 37.941406 -77.628906 C 39.789062 -75.160156 36.601562 -69.300781 35.472656 -66.933594 C 33.929688 -63.4375 31.976562 -60.046875 30.023438 -56.753906 L 27.246094 -52.230469 C 26.21875 -50.6875 24.882812 -49.25 24.265625 -47.707031 C 24.675781 -48.425781 25.5 -49.351562 26.011719 -49.96875 L 28.273438 -53.566406 C 30.023438 -56.34375 31.667969 -59.121094 33.210938 -62 C 34.03125 -63.335938 34.855469 -64.878906 35.78125 -66.523438 C 34.753906 -64.363281 33.621094 -62.308594 32.492188 -60.25 C 27.964844 -52.027344 22.722656 -44.3125 17.066406 -36.910156 C 18.917969 -43.59375 20.871094 -50.277344 23.339844 -56.859375 C 25.703125 -63.027344 28.070312 -69.710938 32.078125 -75.058594 Z M 21.796875 -22.105469 C 25.191406 -26.835938 28.6875 -31.460938 32.695312 -35.675781 C 33.621094 -36.707031 38.761719 -42.566406 40.511719 -41.332031 C 42.15625 -40.097656 36.292969 -33.414062 35.472656 -32.492188 C 31.667969 -28.378906 27.039062 -24.164062 21.796875 -22.105469 Z M 22.414062 -59.015625 C 23.648438 -62 24.777344 -65.082031 26.21875 -68.167969 C 26.320312 -68.578125 27.347656 -69.914062 27.863281 -70.839844 C 27.347656 -69.503906 25.808594 -67.242188 25.601562 -66.625 C 23.957031 -62.410156 22.722656 -58.09375 21.285156 -53.773438 C 19.636719 -48.632812 17.992188 -43.699219 16.65625 -38.554688 L 16.863281 -39.378906 L 16.757812 -39.277344 C 16.757812 -39.378906 16.863281 -39.378906 16.863281 -39.480469 C 18.199219 -45.960938 19.84375 -52.847656 22.414062 -59.015625 Z M 15.011719 -59.324219 L 14.910156 -59.222656 C 15.011719 -59.222656 15.011719 -59.324219 15.011719 -59.324219 Z M 14.910156 -59.121094 L 14.910156 -59.222656 Z M 14.910156 -59.121094 "/></g></g></g><g fill="#0048ff" fill-opacity="1"><g transform="translate(215.765615, 215.624986)"><g><path d="M 66.214844 -71.5625 L 66.214844 -71.664062 C 66.113281 -72.179688 65.804688 -72.28125 65.289062 -72.382812 C 64.878906 -72.488281 65.082031 -71.871094 64.671875 -71.871094 C 64.261719 -71.765625 63.128906 -71.972656 62.71875 -71.972656 C 60.148438 -72.179688 57.578125 -72.074219 55.007812 -71.871094 C 54.390625 -71.871094 53.363281 -71.664062 52.847656 -71.765625 C 51.71875 -71.972656 51.71875 -72.382812 50.894531 -73.101562 C 49.660156 -74.234375 47.605469 -75.261719 45.855469 -75.058594 C 45.035156 -74.953125 44.519531 -74.851562 44.007812 -74.234375 C 43.699219 -73.824219 44.007812 -73.515625 44.007812 -73.515625 C 43.800781 -73 43.390625 -72.28125 42.976562 -71.871094 C 42.15625 -70.839844 42.257812 -70.839844 40.820312 -70.429688 C 39.378906 -70.019531 38.351562 -69.710938 36.910156 -69.609375 C 34.957031 -69.503906 33.105469 -68.992188 31.152344 -68.578125 C 29.816406 -68.375 27.964844 -68.375 26.734375 -67.757812 C 26.011719 -67.449219 25.703125 -67.242188 25.394531 -66.523438 C 24.164062 -63.4375 28.378906 -62.101562 30.640625 -62.203125 C 32.285156 -62.308594 34.855469 -62.511719 36.292969 -63.128906 C 37.324219 -63.542969 37.941406 -63.953125 38.96875 -64.15625 C 36.191406 -58.398438 33.722656 -52.539062 31.050781 -46.679688 C 28.480469 -40.921875 25.601562 -35.164062 23.441406 -29.199219 C 22.515625 -26.628906 21.898438 -23.957031 20.769531 -21.386719 C 19.535156 -18.816406 18.40625 -16.246094 17.480469 -13.570312 C 15.9375 -9.253906 13.367188 -4.316406 15.421875 0.207031 C 12.234375 1.234375 8.84375 1.4375 5.449219 2.054688 C 4.214844 2.363281 2.46875 2.261719 1.335938 2.878906 C -0.824219 4.011719 -0.101562 6.582031 1.746094 7.710938 C 4.214844 9.152344 8.738281 8.226562 11.308594 7.402344 C 12.234375 7.09375 12.953125 6.582031 13.984375 6.375 C 15.628906 6.167969 17.273438 5.757812 18.917969 5.550781 C 21.898438 5.140625 24.164062 4.421875 27.039062 3.804688 L 32.386719 2.671875 C 33.210938 2.46875 33.828125 1.953125 34.339844 1.644531 C 34.855469 1.4375 35.371094 1.4375 36.191406 1.335938 C 37.324219 1.335938 40.921875 0.925781 40.921875 -0.71875 C 40.921875 -1.335938 40.613281 -1.644531 40.097656 -1.746094 C 39.6875 -1.851562 39.789062 -1.234375 39.378906 -1.234375 C 38.863281 -1.132812 37.941406 -1.335938 37.425781 -1.335938 C 32.59375 -1.644531 27.65625 -1.234375 22.824219 -0.71875 C 24.265625 -5.65625 25.910156 -10.589844 27.863281 -15.320312 C 29.097656 -18.507812 29.714844 -21.695312 31.050781 -24.777344 C 32.695312 -28.789062 34.339844 -32.796875 36.292969 -36.707031 C 38.042969 -40.203125 38.96875 -43.800781 40.714844 -47.191406 C 42.566406 -50.996094 44.3125 -54.699219 46.269531 -58.398438 C 47.296875 -60.457031 48.839844 -62.820312 49.457031 -65.082031 C 49.558594 -65.699219 48.839844 -65.90625 49.558594 -66.523438 C 49.867188 -66.730469 51.203125 -66.625 51.613281 -66.730469 C 53.464844 -67.035156 55.316406 -67.449219 57.167969 -67.859375 C 59.121094 -68.269531 59.53125 -69.09375 61.175781 -69.195312 C 62.308594 -69.300781 66.523438 -69.609375 66.214844 -71.5625 Z M 40.097656 -52.230469 C 39.6875 -51.410156 39.277344 -50.6875 38.96875 -49.867188 C 39.277344 -51.203125 39.171875 -52.539062 39.6875 -53.875 C 40.097656 -55.007812 41.433594 -56.136719 42.15625 -57.269531 C 41.539062 -55.519531 41.023438 -53.875 40.097656 -52.230469 Z M 35.882812 -46.472656 L 34.445312 -44.210938 C 34.957031 -45.445312 35.265625 -46.679688 35.882812 -47.914062 C 36.089844 -48.324219 36.5 -48.839844 36.910156 -49.351562 C 36.5 -48.425781 36.398438 -47.398438 35.882812 -46.472656 Z M 35.882812 -46.472656 "/></g></g></g><g fill="#0048ff" fill-opacity="1"><g transform="translate(261.823836, 215.624986)"><g><path d="M 46.578125 -45.855469 C 46.472656 -45.238281 46.78125 -44.417969 46.78125 -43.800781 C 46.886719 -40.613281 46.164062 -37.425781 45.445312 -34.445312 C 43.699219 -27.144531 40.921875 -20.050781 37.324219 -13.46875 C 35.574219 -10.179688 33.621094 -6.992188 31.359375 -4.011719 C 30.332031 -2.671875 29.199219 -1.4375 28.070312 -0.308594 C 27.453125 0.308594 24.777344 2.160156 24.675781 3.085938 C 24.675781 3.1875 27.039062 1.542969 27.246094 1.4375 C 26.320312 2.261719 25.394531 3.085938 24.367188 3.804688 C 24.882812 3.289062 22.722656 4.523438 22.722656 4.523438 C 21.898438 5.039062 20.976562 5.449219 19.945312 5.859375 C 18.300781 6.476562 16.347656 6.992188 14.496094 6.890625 C 9.5625 6.476562 9.152344 1.234375 9.460938 -2.671875 C 10.28125 -13.367188 14.601562 -24.675781 19.019531 -34.445312 C 23.648438 -44.621094 29.199219 -55.007812 36.601562 -63.4375 C 37.835938 -64.773438 39.996094 -67.242188 42.15625 -68.785156 C 38.144531 -66.316406 34.855469 -62.101562 32.183594 -58.398438 C 34.957031 -62.308594 38.351562 -66.730469 42.566406 -69.300781 C 44.519531 -70.429688 47.707031 -71.5625 48.324219 -68.578125 C 48.941406 -65.699219 46.988281 -62.101562 45.753906 -59.738281 C 43.492188 -55.625 40.613281 -51.921875 37.117188 -48.941406 C 37.324219 -49.25 40.203125 -52.230469 40.203125 -52.230469 C 39.894531 -52.335938 36.5 -49.148438 36.191406 -48.839844 C 35.984375 -48.632812 32.183594 -46.0625 31.976562 -45.960938 L 32.078125 -45.960938 C 31.667969 -45.753906 31.359375 -45.652344 31.359375 -45.546875 C 30.226562 -43.902344 33.210938 -42.667969 34.445312 -42.566406 C 37.425781 -42.050781 40.40625 -44.621094 42.566406 -46.371094 C 46.886719 -49.660156 51.101562 -53.875 54.082031 -58.503906 C 55.316406 -60.355469 56.859375 -63.746094 56.652344 -66.113281 C 56.242188 -70.429688 51.511719 -74.851562 47.707031 -76.597656 C 44.109375 -78.140625 40.304688 -76.394531 37.117188 -74.542969 C 32.285156 -71.765625 28.273438 -67.652344 24.777344 -63.234375 C 23.238281 -61.277344 21.796875 -59.222656 20.253906 -57.167969 L 18.097656 -54.082031 C 17.789062 -53.671875 17.273438 -52.539062 16.863281 -51.921875 L 17.066406 -52.128906 L 14.1875 -47.5 L 14.804688 -48.632812 C 14.292969 -48.734375 12.03125 -44.621094 11.824219 -44.109375 C 10.691406 -42.359375 9.769531 -40.511719 8.84375 -38.660156 C 6.683594 -34.445312 4.730469 -30.125 3.597656 -25.394531 C 2.46875 -20.769531 0.925781 -16.246094 0.308594 -11.414062 C 0.101562 -9.355469 -0.101562 -7.300781 0.101562 -5.242188 C 0.101562 -4.730469 1.542969 -0.207031 1.542969 -0.207031 L 1.542969 -0.410156 C 1.851562 0.410156 2.160156 1.335938 2.671875 2.363281 C 2.46875 1.953125 1.746094 1.027344 1.644531 0.515625 C 1.746094 1.335938 3.085938 2.980469 3.1875 3.1875 C 6.476562 9.152344 12.234375 15.113281 19.636719 14.394531 C 31.769531 13.160156 40.40625 -0.308594 45.753906 -10.074219 C 48.941406 -15.832031 51.820312 -21.898438 53.363281 -28.378906 C 54.492188 -33.003906 56.035156 -38.554688 53.671875 -43.183594 C 52.746094 -44.929688 47.398438 -50.070312 46.578125 -45.855469 Z M 5.859375 -25.601562 C 4.214844 -20.976562 2.363281 -15.832031 1.644531 -10.898438 C 2.261719 -15.832031 3.703125 -20.769531 5.242188 -25.394531 C 7.609375 -32.695312 11.105469 -39.996094 15.21875 -46.472656 C 19.328125 -52.847656 23.75 -59.015625 28.789062 -64.671875 C 30.023438 -65.90625 31.257812 -67.34375 32.695312 -68.578125 C 31.152344 -67.140625 29.714844 -65.496094 28.480469 -64.15625 C 23.648438 -58.707031 19.84375 -52.335938 16.039062 -46.164062 C 12.132812 -39.6875 8.328125 -32.796875 5.859375 -25.601562 Z M 46.269531 -70.121094 C 47.707031 -69.914062 48.117188 -68.683594 48.015625 -67.242188 C 48.222656 -69.300781 47.5 -70.839844 44.929688 -70.019531 C 45.34375 -70.121094 45.753906 -70.121094 46.269531 -70.121094 Z M 46.886719 -63.027344 C 47.398438 -64.15625 47.914062 -65.496094 48.015625 -66.933594 C 47.808594 -65.597656 47.296875 -64.15625 46.886719 -63.027344 Z M 25.085938 -47.089844 L 24.984375 -46.988281 L 25.085938 -47.089844 L 25.191406 -47.191406 L 24.777344 -46.472656 L 22.722656 -43.082031 L 24.984375 -46.988281 C 24.882812 -46.886719 24.882812 -46.78125 24.882812 -46.78125 C 24.882812 -46.886719 24.984375 -46.988281 25.085938 -47.089844 Z M 46.578125 -62.101562 L 46.0625 -61.074219 C 46.164062 -61.175781 46.371094 -61.484375 46.578125 -62.101562 Z M 25.292969 -47.398438 L 25.085938 -47.191406 L 25.808594 -48.425781 Z M 43.390625 -69.503906 L 42.976562 -69.300781 C 43.082031 -69.300781 43.183594 -69.300781 43.390625 -69.503906 Z M 22.414062 -42.359375 L 22.105469 -41.949219 Z M 22.414062 -42.359375 "/></g></g></g></svg>